<?xml version="1.0" standalone="no"?>
<!DOCTYPE svg PUBLIC "-//W3C//DTD SVG 20010904//EN"
 "http://www.w3.org/TR/2001/REC-SVG-20010904/DTD/svg10.dtd">
<svg version="1.0" xmlns="http://www.w3.org/2000/svg"
 width="128.000000pt" height="128.000000pt" viewBox="0 0 128.000000 128.000000"
 preserveAspectRatio="xMidYMid meet">
<metadata>
Created by potrace 1.11, written by Peter Selinger 2001-2013
</metadata>
<g transform="translate(0.000000,128.000000) scale(0.100000,-0.100000)"
fill="#000000" stroke="none">
<path d="M370 1081 c-6 -13 -10 -158 -10 -405 0 -347 2 -386 17 -401 15 -15
37 -17 182 -13 145 4 172 7 216 27 60 27 91 54 116 103 56 110 20 242 -82 298
l-46 25 30 24 c50 41 67 79 67 149 0 73 -16 116 -56 154 -51 47 -100 58 -270
58 -141 0 -154 -2 -164 -19z m316 -86 c59 -25 82 -114 46 -185 -26 -52 -70
-70 -174 -70 l-88 0 0 135 0 135 90 0 c57 0 104 -5 126 -15z m31 -365 c106
-48 113 -202 11 -257 -26 -14 -57 -18 -143 -18 l-110 0 -3 148 -3 147 103 0
c80 0 113 -5 145 -20z"/>
</g>
</svg>
